<?xml version="1.0" encoding="UTF-8" standalone="no"?>
<svg
   xmlns:dc="http://purl.org/dc/elements/1.1/"
   xmlns:cc="http://creativecommons.org/ns#"
   xmlns:rdf="http://www.w3.org/1999/02/22-rdf-syntax-ns#"
   xmlns:svg="http://www.w3.org/2000/svg"
   xmlns="http://www.w3.org/2000/svg"
   id="svg10"
   version="1.1"
   width="512pt"
   viewBox="-41 0 512 512"
   height="512pt">
  <metadata
     id="metadata16">
    <rdf:RDF>
      <cc:Work
         rdf:about="">
        <dc:format>image/svg+xml</dc:format>
        <dc:type
           rdf:resource="http://purl.org/dc/dcmitype/StillImage" />
        <dc:title></dc:title>
      </cc:Work>
    </rdf:RDF>
  </metadata>
  <defs
     id="defs14" />
  <path
     id="path2"
     d="m 320.69899,270.5393 -15.41678,50.05972 c 9.76953,3.53907 23.0967,8.61582 33.07326,13.70957 z" />
  <path
     id="path4"
     d="M 348.80859,375.96875 C 271.00391,316.58594 96.574219,316.35547 18.570312,376.10156 L 1.691406,443.37109 C -7.058594,478.30078 19.269531,512 55.03125,512 h 257.34766 c 35.78125,0 62.08203,-33.73438 53.33984,-68.62891 z m -133.57531,61.76 h -60 c -8.28125,0 -15,-6.71094 -15,-15 0,-8.28125 6.71875,-15 15,-15 h 60 c 8.28906,0 15,6.71875 15,15 0,8.28906 -6.71094,15 -15,15 z" />
  <path
     id="path6"
     d="m 168.70312,301.52734 c 15.50337,-0.19333 32.7285,-0.12496 47.15235,0.95712 L 281.79079,124.69657 272.07812,70.089844 C 262.3125,28.8125 225.98828,0 183.70312,0 141.41797,0 105.09766,28.8125 95.328125,70.082031 L 29.046875,334.3125 C 70.582031,313.07812 121.30078,303.19141 168.70312,301.52734 Z" />
  <path
     id="path8"
     d="M 383.37685,7.007475 C 375.69032,3.9077 366.95647,7.624954 363.85286,15.312193 L 351.03014,47.125076 C 308.54915,44.916167 287.1867,98.064449 319.19418,126.08652 l -70.92853,178.5473 c 15.7842,1.91422 12.95388,1.59732 31.53113,5.56663 l 67.23928,-172.95269 c 42.37043,1.73674 62.86367,-50.803069 31.71946,-78.66599 l 12.92009,-32.061118 c 3.10574,-7.675715 -0.61293,-16.417244 -8.29876,-19.513177 z M 351.525,107.04916 c -8.13344,1.49407 -15.97974,-3.96728 -17.48651,-12.169869 -1.50677,-8.2026 3.88777,-16.08826 12.02121,-17.58233 8.09502,-1.48701 15.97339,3.9327 17.4851,12.16219 1.50677,8.20259 -3.88635,16.095939 -12.0198,17.590009 z" />
</svg>
