<svg version="1" xmlns="http://www.w3.org/2000/svg" width="933.333" height="933.333" viewBox="0 0 700.000000 700.000000"><path d="M294.9.4c-.2.2-2.4.6-4.9 1-10.2 1.4-12.8 1.9-21.4 4.8-37.5 12.3-67.7 42.7-79.4 79.8-1.7 5.4-8.6 31.7-9.7 37l-2 8-2 8c-.2.8-14.1 56.4-31 123.5-16.8 67.1-30.8 122.8-31 123.8-.6 2.7-16.5 66-17.1 67.9-.8 2.5.3 2.3 10.2-2.3 23-10.7 50.4-20.1 74.4-25.6 3.6-.8 7.4-1.7 8.5-1.9 4.1-1 26.2-5.3 30.1-5.8 23-3.3 29-4 46.9-5.3 11-.8 62.1-1 76.7-.3 4.2.2 7.9.2 8.1 0 .2-.3 4.3-11.3 9.2-24.5 4.8-13.2 9.3-25.1 9.8-26.5.6-1.4 1.1-3 1.2-3.5.3-1.2 10.3-28.1 11.6-31 .7-1.7 40.4-108.6 54.1-145.9 4.2-11.4 4.2-11.2 1.9-23.6-1.6-8.7-5-28.2-5.6-31.5-.8-5-3.5-19.5-5-27.6-9.2-47.7-48.6-86.9-96.9-96.5-7.2-1.4-35.6-3-36.7-2zM565.6 9.5c-2.2.8-5.5 2.9-7.3 4.7-3.4 3.4-4.2 5.1-15.5 33.3-3.3 8.2-6.4 15.4-6.9 15.9-.5.6-3 1.1-5.6 1.2-22.5.7-41.9 13.3-52 33.7-11.9 23.8-8 50.9 10.1 70 2 2.1 3.6 4.2 3.6 4.6 0 .9-8.8 23.1-10 25.3-.6 1-1 2.2-1 2.8 0 .5-1.1 3.4-2.5 6.4-1.4 3-2.5 6-2.5 6.5 0 .6-.4 1.9-1 2.9-.5.9-7.3 17.7-15 37.2-7.7 19.5-14.5 36.4-14.9 37.5-.5 1.1-2.4 5.8-4.2 10.5-1.7 4.7-4 10.3-4.9 12.5-5.5 12.8-40.3 101.6-39.9 101.9.2.2 3.1.6 6.4 1 6.7.7 12.7 1.7 26.5 4.5 5.2 1 9.6 1.6 9.8 1.2.2-.3 20.9-53.5 46-118.1l45.8-117.5 2.9.1c4.2.2 14.2-1.4 19.5-3.2 15-5.1 27.5-16.2 34.4-30.8 3.9-8.1 5.3-12.2 6.3-19.1.1-1.1.3-5.6.3-10 .2-13.4-4.3-26-12.9-36.5-2.5-3-5.2-6-5.9-6.5-1.1-.9.6-5.8 8.2-25.1 6.5-16.2 9.6-25.4 9.6-28 0-4.4-2.7-10.8-5.9-14.1-5.1-5.3-14.2-7.4-21.5-4.8zm-23.1 98.4c11.8 6.5 14.4 23.1 5.1 32.4-4.2 4.2-8.5 6-14.6 6-17.9.2-27.2-21.3-14.9-34.4 6.2-6.6 16.6-8.3 24.4-4zM491.5 379.7c-1.4 4.8-3.9 12.8-5.5 17.8-4.7 14.7-12 39-12 40 0 .6 2.8 2.1 6.3 3.3 3.4 1.3 7.1 2.7 8.2 3.2 1.1.4 5.2 2 9 3.6 6 2.4 18.7 7.9 20.6 9 .3.2-2.5-10.8-6.3-24.4-3.8-13.6-7.1-25.4-7.3-26.2-2.1-8.4-9.5-34.3-9.9-34.7-.2-.3-1.6 3.5-3.1 8.4zM281.9 453.4c-.2.2-5.3.6-11.4 1-6 .3-12.1.8-13.5 1-1.4.2-5.6.7-9.5 1.1-7.6.6-9.4.9-23 3-9.8 1.6-13.6 2.3-17.5 3-1.4.3-3.8.8-5.4 1.1-18.3 3.3-54.3 14.7-72.8 23.1-16.7 7.5-36.7 19.1-45.9 26.5-1.2 1-8.7 28.4-15.5 56.8-.2.8-2.2 8.9-4.5 18-6.4 25.8-6.7 27.7-6.4 39 .4 12.8 2.1 19.7 8.1 31.8 3.7 7.6 6.1 10.9 12.7 17.6 4.5 4.5 9.6 9.2 11.4 10.4 5.6 3.9 15.5 8.5 22.8 10.6 7 2.1 7.7 2.1 194 2.3 182 .1 187.2.1 194.9-1.8 20.8-5.1 38.6-18.9 48.9-37.9 7.9-14.5 11-34.8 7.7-49.5-.7-2.8-1.3-5.7-1.5-6.5-.2-.8-4.2-17-9-36s-9.7-38.6-10.9-43.6c-1.3-5-2.6-9.6-3-10.3-.7-1.1-13.6-10.2-18.7-13.1-8.6-5-35-17.5-43.9-20.8-16.4-6.2-44.6-14.3-57.4-16.6-1.6-.3-5.2-1-8-1.5-6.9-1.4-10.3-2-15.6-2.7-2.5-.3-5.2-.7-6-.9-2.5-.7-11.8-1.8-25-3-3.6-.3-8.1-.8-10-1.1-4.1-.6-65.5-1.5-66.1-1zm78.3 106.9c7.4 4.3 10.8 10.5 10.3 18.9-.3 6.5-4 12.6-9.9 16.2l-4.8 3h-46.2c-44.9 0-46.2-.1-50.1-2.1-7.4-3.9-11.5-10.5-11.5-18.5.1-8.4 6.1-16.6 14.1-19.3 1.9-.7 19.6-1 48.2-1h45.2l4.7 2.8z"/></svg>